<svg width="59" height="42" viewBox="0 0 59 42" fill="none" xmlns="http://www.w3.org/2000/svg">
<path fill-rule="evenodd" clip-rule="evenodd" d="M53.5 41H6C3.23875 41 1 38.7612 1 36V6C1 3.23875 3.23875 1 6 1H53.5C56.2612 1 58.5 3.23875 58.5 6V36C58.5 38.7612 56.2612 41 53.5 41ZM3.5 17.25H56V12.25H3.5V17.25ZM56 6C56 4.62 54.88 3.5 53.5 3.5H6C4.62 3.5 3.5 4.62 3.5 6V9.75H56V6ZM56 19.75H3.5V36C3.5 37.38 4.62 38.5 6 38.5H53.5C54.88 38.5 56 37.38 56 36V19.75ZM32.25 27.25H27.25C26.5588 27.25 26 26.6912 26 26C26 25.31 26.5588 24.75 27.25 24.75H32.25C32.9412 24.75 33.5 25.31 33.5 26C33.5 26.6912 32.9412 27.25 32.25 27.25ZM21 27.25H9.75C9.05875 27.25 8.5 26.6912 8.5 26C8.5 25.31 9.05875 24.75 9.75 24.75H21C21.6912 24.75 22.25 25.31 22.25 26C22.25 26.6912 21.6912 27.25 21 27.25ZM9.75 31H17.25C17.9412 31 18.5 31.56 18.5 32.25C18.5 32.9412 17.9412 33.5 17.25 33.5H9.75C9.05875 33.5 8.5 32.9412 8.5 32.25C8.5 31.56 9.05875 31 9.75 31Z" fill="white" stroke="white"/>
</svg>
