<svg width="66" height="40" viewBox="0 0 66 40" fill="none" xmlns="http://www.w3.org/2000/svg">
<path d="M59.0619 7.62977C58.7117 7.12946 58.1363 6.82927 57.536 6.82927H45.9037V1.87617C45.9037 0.850532 45.0532 0 44.0275 0H1.87617C0.850532 0 0 0.850532 0 1.87617V32.1951C0 33.2208 0.850532 34.0713 1.87617 34.0713H7.17949C8.1551 37.4734 11.3071 40 15.0094 40C18.7117 40 21.8637 37.4984 22.8393 34.0713H43.6273C44.6029 37.4734 47.7549 40 51.4572 40C55.1595 40 58.3115 37.4984 59.2871 34.0713H63.1645C64.1901 34.0713 65.0407 33.2208 65.0407 32.1951V16.7605C65.0407 16.3602 64.9156 15.985 64.6904 15.6848L59.0619 7.62977ZM61.3133 17.3108H52.9081V10.6066H56.5854L61.3133 17.3108ZM3.75235 3.77736H42.1514V30.344H23.0144C22.2889 26.5666 18.9869 23.7148 15.0094 23.7148C11.0319 23.7148 7.70482 26.5666 7.00438 30.344H3.75235V3.77736ZM15.0094 36.2477C12.5829 36.2477 10.6066 34.2714 10.6066 31.8449C10.6066 29.4184 12.5829 27.4422 15.0094 27.4422C17.4359 27.4422 19.4121 29.4184 19.4121 31.8449C19.4121 34.2714 17.4359 36.2477 15.0094 36.2477ZM51.4822 36.2477C49.0557 36.2477 47.0794 34.2714 47.0794 31.8449C47.0794 29.4184 49.0557 27.4422 51.4822 27.4422C53.9087 27.4422 55.8849 29.4184 55.8849 31.8449C55.8849 34.2714 53.9087 36.2477 51.4822 36.2477ZM59.4872 30.344C58.7617 26.5666 55.4597 23.7148 51.4822 23.7148C49.3308 23.7148 47.3546 24.5654 45.9037 25.9412V10.6066H49.1307V19.187C49.1307 20.2126 49.9812 21.0632 51.0069 21.0632H61.3383V30.344H59.4872Z" fill="white"/>
</svg>
